<?xml version="1.0" encoding="UTF-8"?>
<svg id="Laag_1" xmlns="http://www.w3.org/2000/svg" version="1.1" viewBox="222 35 150 150">
  <defs>
    <style>
      .st1 {
        fill: #771611;
      }
    </style>
  </defs>
  <path class="st1" d="M281.55,81.23c5.86-2.83,10.21-3.86,16.66-3.84,7.2.02,11.69,1.99,17.83,5.01l27.55,13.9c7.19,3.62,12.42,9.64,12.39,18.34s-5.3,14.68-12.51,18.26l-27.65,13.7c-6.16,2.98-10.67,4.91-17.87,4.89-6.45-.02-10.8-1.09-16.64-3.96l-29.8-15.1c-7.04-3.62-12.27-9.79-12.24-18.19s5.3-14.53,12.36-18.11l29.9-14.9ZM258.81,109.2c-2.4,1.19-4.51,1.93-4.52,5.08s2.09,3.91,4.48,5.12l27.1,13.59c4.34,2.27,7.19,3.47,12.14,3.49,3.9.01,6.6-.88,9.91-2.52l28.55-14.3c2.1-1.04,4.51-2.08,4.52-5.08s-2.39-4.06-4.48-5.12l-28.45-14.5c-3.29-1.66-5.99-2.57-9.89-2.58-4.95-.02-7.8,1.17-12.16,3.41l-27.2,13.41Z"/>
</svg>