<?xml version="1.0" encoding="UTF-8"?>
<svg id="Laag_1" xmlns="http://www.w3.org/2000/svg" version="1.1" viewBox="120 345 375 105">
  <defs>
    <style>
      .st0 {
        fill: #1d1d1b;
        font-family: MyriadPro-Regular, 'Myriad Pro';
        font-size: 12px;
      }

      .st1 {
        fill: #771611;
      }

      .st2 {
        fill: #0d3048;
      }
    </style>
  </defs>
  <g>
    <path class="st2" d="M168.01,428.33h16.19c2.86,0,2.88.43,2.88,4.4s12.68,6.73-2.88,6.62h-43.4c-2.86,0-5.51-1.54-5.51-5.51s2.64-5.51,5.51-5.51h16.19v-63.67h-16.19c-2.86,0-5.51-1.54-5.51-5.51s2.64-5.51,5.51-5.51h43.4c2.86,0,5.51,1.54,5.51,5.51s-2.64,5.51-5.51,5.51h-16.19v63.67Z"/>
    <path class="st2" d="M226.98,359.25c0-3.53,1.54-5.51,5.51-5.51s5.51,1.98,5.51,5.51v80.2h-14.54l-28.75-66.1v-.11h-.22v60.59c0,3.53-1.54,5.51-5.51,5.51s-5.51-1.98-5.51-5.51v-80.2h14.54l28.75,66.87h-.11.22l.11-61.25Z"/>
    <path class="st2" d="M290.89,417.2c2.2,2.86,3.86,5.4,3.86,9.14,0,8.26-6.24,13.11-13.84,13.11h-24.79c-3.98-.68-25.94,1.18-29.24-1.57-2.97-2.42,8.61-8.33,8.61-12.18,0-3.53-8.58,1.52-4.73,1.52,3.19,0-1.88-4.67-1.88-1.7,0,3.3,24.23,2.26,27.31,2.26h23.9c.88,0,3.64.33,3.64-1.32,0-.88-1.54-2.53-1.98-3.19l-37.78-48.58c-2.31-2.97-3.64-5.18-3.64-9.03,0-4.41,2.09-8.15,5.84-10.58,3.09-1.98,5.62-1.98,9.14-1.98h23.35c4.19,0,26.97-.72,30.16,2.04,2.86,2.53,2.22-2.65,2.22,1.21,0,3.53.92,7.77-3.04,7.77-3.3,0,4.93.13,0,0-3.74-.1-26.15,0-29.56,0h-23.35c-1.21,0-3.75-.33-3.75,1.54,0,.99,1.21,2.31,1.65,2.97l37.9,48.58Z"/>
    <path class="st2" d="M308.01,433.28c0,3.53-1.54,5.51-5.51,5.51s-5.51-1.98-5.51-5.51v-80.2h36.57c5.07,0,8.7.77,12.67,4.52,4.74,4.41,5.18,8.48,5.18,14.43v14.98c0,5.62-.44,9.58-4.52,14.1-4.3,4.85-8.81,5.29-14.76,5.29h-24.13v26.88ZM308.01,395.39h24.46c6.5,0,7.93-1.65,7.93-7.93v-15.42c0-6.28-1.43-7.93-7.93-7.93h-24.46v31.29Z"/>
    <path class="st1" d="M384.13,371.88c4.3-2.09,7.49-2.86,12.23-2.86,5.29,0,8.59,1.43,13.11,3.64l20.27,10.13c5.29,2.64,9.14,7.05,9.14,13.44s-3.86,10.8-9.14,13.44l-20.27,10.13c-4.52,2.2-7.82,3.64-13.11,3.64-4.74,0-7.93-.77-12.23-2.86l-21.92-11.02c-5.18-2.64-9.03-7.16-9.03-13.33,0-6.17,3.86-10.69,9.03-13.33l21.92-11.02ZM367.5,392.48c-1.76.88-3.3,1.43-3.3,3.75s1.54,2.86,3.3,3.75l19.94,9.91c3.19,1.65,5.29,2.53,8.92,2.53,2.86,0,4.85-.66,7.27-1.87l20.93-10.58c1.54-.77,3.3-1.54,3.3-3.75s-1.76-2.97-3.3-3.75l-20.93-10.57c-2.42-1.21-4.41-1.87-7.27-1.87-3.64,0-5.73.88-8.92,2.53l-19.94,9.91Z"/>
    <path class="st2" d="M433.3,363.55v3.97c0,3.53-1.54,5.51-5.51,5.51s-5.51-1.98-5.51-5.51v-14.98h54.42v14.98c0,3.53-1.54,5.51-5.51,5.51s-5.51-1.98-5.51-5.51v-3.97h-10.69v69.18c0,3.53-1.54,5.51-5.51,5.51s-5.51-1.98-5.51-5.51v-69.18h-10.69Z"/>
  </g>
</svg>